name Walk2.mot
datacolumns 19
datarows 17
range 0.92500000 1.00500000
endheader

                time	   L_ground_force_vx	   L_ground_force_vy	   L_ground_force_vz	   L_ground_force_px	   L_ground_force_py	   L_ground_force_pz	   R_ground_force_vx	   R_ground_force_vy	   R_ground_force_vz	   R_ground_force_px	   R_ground_force_py	   R_ground_force_pz	   L_ground_torque_x	   L_ground_torque_y	   L_ground_torque_z	   R_ground_torque_x	   R_ground_torque_y	   R_ground_torque_z	
          0.92500000	          4.06803702	        713.91932091	         42.29815505	         -0.28112125	          0.00000000	         -0.02878134	         -0.02324272	          0.36132270	          0.02364292	          0.00009967	          0.00000000	          0.00009871	          0.00000000	          0.84350746	          0.00000000	          0.00000000	         -0.00864271	          0.00000000	
          0.93000000	          6.17095454	        718.60383369	         42.49976502	         -0.27909931	          0.00000000	         -0.02895272	         -0.03585595	          0.43592283	          0.02814312	          0.00011128	          0.00000000	          0.00010907	          0.00000000	          0.90006721	          0.00000000	          0.00000000	         -0.00929754	          0.00000000	
          0.93500000	          8.42067344	        723.48381474	         42.64766501	         -0.27713434	          0.00000000	         -0.02908723	         -0.05110272	          0.49849123	          0.03168981	          0.00011567	          0.00000000	          0.00011178	          0.00000000	          0.95646070	          0.00000000	          0.00000000	         -0.00917202	          0.00000000	
          0.94000000	         10.81732379	        728.59545447	         42.73682796	         -0.27523233	          0.00000000	         -0.02918372	         -0.06857581	          0.53458115	          0.03331220	          0.00010825	          0.00000000	          0.00010220	          0.00000000	          1.01129710	          0.00000000	          0.00000000	         -0.00784511	          0.00000000	
          0.94500000	         13.35722524	        733.95754694	         42.76394232	         -0.27339839	          0.00000000	         -0.02924166	         -0.08736569	          0.52493019	          0.03173379	          0.00008332	          0.00000000	          0.00007467	          0.00000000	          1.06340669	          0.00000000	          0.00000000	         -0.00480845	          0.00000000	
          0.95000000	         16.03330275	        739.57006799	         42.72738462	         -0.27163630	          0.00000000	         -0.02926083	         -0.10589159	          0.44514203	          0.02535878	          0.00003418	          0.00000000	          0.00002254	          0.00000000	          1.11220450	          0.00000000	          0.00000000	          0.00051989	          0.00000000	
          0.95500000	         18.83653652	        745.41307513	         42.62852967	         -0.26994878	          0.00000000	         -0.02924123	         -0.12172110	          0.26582349	          0.01229028	         -0.00004667	          0.00000000	         -0.00006155	          0.00000000	          1.15772720	          0.00000000	          0.00000000	          0.00876467	          0.00000000	
          0.96000000	         21.75951307	        751.44135514	         42.47062261	         -0.26833722	          0.00000000	         -0.02918406	         -0.13139369	         -0.04658571	         -0.00960422	         -0.00016699	          0.00000000	         -0.00018507	          0.00000000	          1.20053147	          0.00000000	          0.00000000	          0.02054048	          0.00000000	
          0.96500000	         24.80037825	        757.58118468	         42.25825151	         -0.26680158	          0.00000000	         -0.02909138	         -0.13027239	         -0.52800495	         -0.04256159	         -0.00033401	          0.00000000	         -0.00035488	          0.00000000	          1.24121611	          0.00000000	          0.00000000	          0.03637023	          0.00000000	
          0.97000000	         27.96264741	        763.73449948	         41.99656688	         -0.26534069	          0.00000000	         -0.02896522	         -0.11245763	         -1.21360251	         -0.08870561	         -0.00055328	          0.00000000	         -0.00057589	          0.00000000	          1.27985338	          0.00000000	          0.00000000	          0.05656934	          0.00000000	
          0.97500000	         31.25282689	        769.78620917	         41.68950005	         -0.26395085	          0.00000000	         -0.02880907	         -0.07080846	         -2.13303816	         -0.14972176	         -0.00082696	          0.00000000	         -0.00084952	          0.00000000	          1.31580396	          0.00000000	          0.00000000	          0.08109084	          0.00000000	
          0.98000000	         34.67878504	        775.60812478	         41.33840286	         -0.26262562	          0.00000000	         -0.02862836	          0.00287108	         -3.30372396	         -0.22640420	         -0.00115175	          0.00000000	         -0.00117144	          0.00000000	          1.34800666	          0.00000000	          0.00000000	          0.10932839	          0.00000000	
          0.98500000	         38.24819815	        781.06216543	         40.94136756	         -0.26135740	          0.00000000	         -0.02842838	          0.11741138	         -4.72182571	         -0.31805925	         -0.00151617	          0.00000000	         -0.00152896	          0.00000000	          1.37482467	          0.00000000	          0.00000000	          0.13987819	          0.00000000	
          0.99000000	         41.96631030	        786.01244217	         40.49641414	         -0.26013829	          0.00000000	         -0.02821337	          0.28154307	         -6.35085111	         -0.42175865	         -0.00189746	          0.00000000	         -0.00189791	          0.00000000	          1.39406270	          0.00000000	          0.00000000	          0.17026603	          0.00000000	
          0.99500000	         45.83714244	        790.34034480	         40.00541424	         -0.25896119	          0.00000000	         -0.02798814	          0.50276454	         -8.10788198	         -0.53145069	         -0.00225803	          0.00000000	         -0.00223918	          0.00000000	          1.40402868	          0.00000000	          0.00000000	          0.19665362	          0.00000000	
          1.00000000	         49.86983054	        793.94946861	         39.46952847	         -0.25782009	          0.00000000	         -0.02775653	          0.78572782	         -9.84783076	         -0.63695945	         -0.00254181	          0.00000000	         -0.00249519	          0.00000000	          1.40419193	          0.00000000	          0.00000000	          0.21354898	          0.00000000	
          1.00500000	         54.07937906	        796.76370069	         38.88855484	         -0.25670984	          0.00000000	         -0.02752008	          1.13007272	        -11.34655752	         -0.72293268	         -0.00267086	          0.00000000	         -0.00258668	          0.00000000	          1.39481760	          0.00000000	          0.00000000	          0.21355867	          0.00000000	
